<svg width="183" height="42" viewBox="0 0 183 42" fill="none" xmlns="http://www.w3.org/2000/svg">
<path d="M0 21C-2.1813e-07 23.4951 0.491449 25.9658 1.44629 28.271C2.40113 30.5762 3.80066 32.6707 5.56497 34.435C7.32928 36.1993 9.42382 37.5989 11.729 38.5537C14.0342 39.5085 16.5049 40 19 40V21L0 21Z" fill="url(#paint0_linear_22100_12236)"/>
<path d="M38 21C38 18.5049 37.5085 16.0342 36.5537 13.729C35.5989 11.4238 34.1993 9.32928 32.435 7.56497C30.6707 5.80066 28.5762 4.40113 26.271 3.44629C23.9658 2.49145 21.4951 2 19 2L19 21H38Z" fill="url(#paint1_linear_22100_12236)"/>
<path d="M38 21C38 23.4951 37.5085 25.9658 36.5537 28.271C35.5989 30.5762 34.1993 32.6707 32.435 34.435C30.6707 36.1993 28.5762 37.5989 26.271 38.5537C23.9658 39.5085 21.4951 40 19 40L19 21H38Z" fill="url(#paint2_linear_22100_12236)"/>
<path d="M0 21C-2.1813e-07 18.5049 0.491449 16.0342 1.44629 13.729C2.40113 11.4238 3.80066 9.32928 5.56497 7.56497C7.32928 5.80066 9.42382 4.40113 11.729 3.44629C14.0342 2.49145 16.5049 2 19 2V21L0 21Z" fill="url(#paint3_linear_22100_12236)"/>
<path d="M48.8896 39V15.816H55.1776V39H48.8896ZM64.0096 39V25.32C64.0096 23.976 63.5776 22.936 62.7136 22.2C61.8816 21.432 60.8416 21.048 59.5936 21.048C58.7616 21.048 58.0096 21.224 57.3376 21.576C56.6656 21.896 56.1376 22.376 55.7536 23.016C55.3696 23.656 55.1776 24.424 55.1776 25.32L52.7296 24.12C52.7296 22.328 53.1136 20.776 53.8816 19.464C54.6816 18.152 55.7536 17.144 57.0976 16.44C58.4416 15.704 59.9616 15.336 61.6576 15.336C63.2576 15.336 64.7136 15.704 66.0256 16.44C67.3376 17.144 68.3776 18.152 69.1456 19.464C69.9136 20.744 70.2976 22.296 70.2976 24.12V39H64.0096ZM79.1296 39V25.32C79.1296 23.976 78.6976 22.936 77.8336 22.2C77.0016 21.432 75.9616 21.048 74.7136 21.048C73.9136 21.048 73.1616 21.224 72.4576 21.576C71.7856 21.896 71.2576 22.376 70.8736 23.016C70.4896 23.656 70.2976 24.424 70.2976 25.32L66.6976 24.456C66.8256 22.6 67.3216 21 68.1856 19.656C69.0496 18.28 70.1856 17.224 71.5936 16.488C73.0016 15.72 74.5696 15.336 76.2976 15.336C78.0256 15.336 79.5776 15.704 80.9536 16.44C82.3296 17.144 83.4176 18.168 84.2176 19.512C85.0176 20.856 85.4176 22.456 85.4176 24.312V39H79.1296ZM99.4906 39.48C97.1546 39.48 95.0426 38.952 93.1546 37.896C91.2986 36.808 89.8106 35.352 88.6906 33.528C87.6026 31.672 87.0586 29.608 87.0586 27.336C87.0586 25.064 87.6026 23.032 88.6906 21.24C89.7786 19.416 91.2666 17.976 93.1546 16.92C95.0426 15.832 97.1386 15.288 99.4426 15.288C101.811 15.288 103.923 15.832 105.779 16.92C107.667 17.976 109.155 19.416 110.243 21.24C111.331 23.032 111.875 25.064 111.875 27.336C111.875 29.608 111.331 31.672 110.243 33.528C109.155 35.352 107.667 36.808 105.779 37.896C103.923 38.952 101.827 39.48 99.4906 39.48ZM99.4426 33.624C100.627 33.624 101.667 33.368 102.563 32.856C103.491 32.312 104.195 31.576 104.675 30.648C105.187 29.688 105.443 28.6 105.443 27.384C105.443 26.168 105.187 25.096 104.675 24.168C104.163 23.24 103.459 22.52 102.563 22.008C101.667 21.464 100.627 21.192 99.4426 21.192C98.2906 21.192 97.2666 21.464 96.3706 22.008C95.4746 22.52 94.7706 23.24 94.2586 24.168C93.7466 25.096 93.4906 26.168 93.4906 27.384C93.4906 28.6 93.7466 29.688 94.2586 30.648C94.7706 31.576 95.4746 32.312 96.3706 32.856C97.2666 33.368 98.2906 33.624 99.4426 33.624ZM123.795 39.48C121.651 39.48 119.731 38.952 118.035 37.896C116.339 36.84 114.995 35.4 114.003 33.576C113.043 31.752 112.563 29.704 112.563 27.432C112.563 25.128 113.043 23.064 114.003 21.24C114.995 19.416 116.323 17.976 117.987 16.92C119.683 15.864 121.619 15.336 123.795 15.336C125.459 15.336 126.947 15.672 128.259 16.344C129.603 17.016 130.675 17.96 131.475 19.176C132.307 20.36 132.755 21.704 132.819 23.208V31.464C132.755 32.968 132.323 34.328 131.523 35.544C130.723 36.76 129.651 37.72 128.307 38.424C126.963 39.128 125.459 39.48 123.795 39.48ZM124.851 33.672C126.035 33.672 127.059 33.416 127.923 32.904C128.819 32.36 129.507 31.624 129.987 30.696C130.499 29.736 130.755 28.632 130.755 27.384C130.755 26.168 130.499 25.096 129.987 24.168C129.507 23.208 128.819 22.472 127.923 21.96C127.059 21.416 126.051 21.144 124.899 21.144C123.715 21.144 122.675 21.416 121.779 21.96C120.915 22.504 120.227 23.24 119.715 24.168C119.235 25.096 118.995 26.168 118.995 27.384C118.995 28.632 119.235 29.736 119.715 30.696C120.227 31.624 120.931 32.36 121.827 32.904C122.723 33.416 123.731 33.672 124.851 33.672ZM136.659 39H130.419V32.76L131.427 27.096L130.371 21.528V4.296H136.659V39ZM151.389 39.48C148.957 39.48 146.797 38.968 144.909 37.944C143.021 36.888 141.517 35.448 140.397 33.624C139.309 31.8 138.765 29.72 138.765 27.384C138.765 25.08 139.293 23.032 140.349 21.24C141.437 19.416 142.909 17.976 144.765 16.92C146.621 15.832 148.685 15.288 150.957 15.288C153.197 15.288 155.165 15.8 156.861 16.824C158.589 17.816 159.933 19.192 160.893 20.952C161.885 22.68 162.381 24.648 162.381 26.856C162.381 27.272 162.349 27.704 162.285 28.152C162.253 28.568 162.173 29.048 162.045 29.592L142.557 29.64V24.936L159.117 24.888L156.573 26.856C156.509 25.48 156.253 24.328 155.805 23.4C155.389 22.472 154.765 21.768 153.933 21.288C153.133 20.776 152.141 20.52 150.957 20.52C149.709 20.52 148.621 20.808 147.693 21.384C146.765 21.928 146.045 22.712 145.533 23.736C145.053 24.728 144.813 25.912 144.813 27.288C144.813 28.696 145.069 29.928 145.581 30.984C146.125 32.008 146.893 32.808 147.885 33.384C148.877 33.928 150.029 34.2 151.341 34.2C152.525 34.2 153.597 34.008 154.557 33.624C155.517 33.208 156.349 32.6 157.053 31.8L160.749 35.496C159.629 36.808 158.253 37.8 156.621 38.472C155.021 39.144 153.277 39.48 151.389 39.48ZM172.318 39.528C171.006 39.528 169.71 39.352 168.43 39C167.182 38.648 166.03 38.168 164.974 37.56C163.918 36.92 163.006 36.152 162.238 35.256L165.982 31.464C166.782 32.36 167.71 33.032 168.766 33.48C169.822 33.928 170.99 34.152 172.27 34.152C173.294 34.152 174.062 34.008 174.574 33.72C175.118 33.432 175.39 33 175.39 32.424C175.39 31.784 175.102 31.288 174.526 30.936C173.982 30.584 173.262 30.296 172.366 30.072C171.47 29.816 170.526 29.544 169.534 29.256C168.574 28.936 167.646 28.536 166.75 28.056C165.854 27.544 165.118 26.856 164.542 25.992C163.998 25.096 163.726 23.944 163.726 22.536C163.726 21.064 164.078 19.784 164.782 18.696C165.518 17.608 166.558 16.76 167.902 16.152C169.246 15.544 170.83 15.24 172.654 15.24C174.574 15.24 176.302 15.576 177.838 16.248C179.406 16.92 180.702 17.928 181.726 19.272L177.934 23.064C177.23 22.2 176.43 21.576 175.534 21.192C174.67 20.808 173.726 20.616 172.702 20.616C171.774 20.616 171.054 20.76 170.542 21.048C170.062 21.336 169.822 21.736 169.822 22.248C169.822 22.824 170.094 23.272 170.638 23.592C171.214 23.912 171.95 24.2 172.846 24.456C173.742 24.68 174.67 24.952 175.63 25.272C176.622 25.56 177.55 25.976 178.414 26.52C179.31 27.064 180.03 27.784 180.574 28.68C181.15 29.576 181.438 30.728 181.438 32.136C181.438 34.408 180.622 36.216 178.99 37.56C177.358 38.872 175.134 39.528 172.318 39.528Z" fill="#181D27"/>
<defs>
<linearGradient id="paint0_linear_22100_12236" x1="2.98418e-06" y1="40" x2="19" y2="21" gradientUnits="userSpaceOnUse">
<stop stop-color="#9D4EFF" stop-opacity="0.8"/>
<stop offset="1" stop-color="#DDD6FE"/>
</linearGradient>
<linearGradient id="paint1_linear_22100_12236" x1="38" y1="1.99999" x2="19" y2="21" gradientUnits="userSpaceOnUse">
<stop stop-color="#FF871F" stop-opacity="0.8"/>
<stop offset="1" stop-color="#FFD6AE"/>
</linearGradient>
<linearGradient id="paint2_linear_22100_12236" x1="38" y1="40" x2="19" y2="21" gradientUnits="userSpaceOnUse">
<stop stop-color="#39E830" stop-opacity="0.8"/>
<stop offset="1" stop-color="#AAF0C4"/>
</linearGradient>
<linearGradient id="paint3_linear_22100_12236" x1="3.35977e-06" y1="2" x2="19" y2="21" gradientUnits="userSpaceOnUse">
<stop stop-color="#0082E9" stop-opacity="0.8"/>
<stop offset="1" stop-color="#B2DDFF"/>
</linearGradient>
</defs>
</svg>
