<svg width="137" height="42" viewBox="0 0 137 42" fill="none" xmlns="http://www.w3.org/2000/svg">
<path d="M41 27.5C41 29.0759 41.3104 30.6363 41.9135 32.0922C42.5165 33.5481 43.4004 34.871 44.5147 35.9853C45.629 37.0996 46.9519 37.9835 48.4078 38.5866C49.8637 39.1896 51.4241 39.5 53 39.5L53 27.5L41 27.5Z" fill="url(#paint0_linear_22105_13162)"/>
<path d="M65 27.5C65 25.9241 64.6896 24.3637 64.0865 22.9078C63.4835 21.4519 62.5996 20.129 61.4853 19.0147C60.371 17.9004 59.0481 17.0165 57.5922 16.4134C56.1363 15.8104 54.5759 15.5 53 15.5L53 27.5H65Z" fill="url(#paint1_linear_22105_13162)"/>
<path d="M65 27.5C65 29.0759 64.6896 30.6363 64.0865 32.0922C63.4835 33.5481 62.5996 34.871 61.4853 35.9853C60.371 37.0996 59.0481 37.9835 57.5922 38.5866C56.1363 39.1896 54.5759 39.5 53 39.5L53 27.5H65Z" fill="url(#paint2_linear_22105_13162)"/>
<path d="M41 27.5C41 25.9241 41.3104 24.3637 41.9135 22.9078C42.5165 21.4519 43.4004 20.129 44.5147 19.0147C45.629 17.9004 46.9519 17.0165 48.4078 16.4134C49.8637 15.8104 51.4241 15.5 53 15.5L53 27.5L41 27.5Z" fill="url(#paint3_linear_22105_13162)"/>
<path d="M2.88962 39V15.816H9.17762V39H2.88962ZM18.0096 39V25.32C18.0096 23.976 17.5776 22.936 16.7136 22.2C15.8816 21.432 14.8416 21.048 13.5936 21.048C12.7616 21.048 12.0096 21.224 11.3376 21.576C10.6656 21.896 10.1376 22.376 9.75362 23.016C9.36962 23.656 9.17762 24.424 9.17762 25.32L6.72962 24.12C6.72962 22.328 7.11362 20.776 7.88162 19.464C8.68162 18.152 9.75362 17.144 11.0976 16.44C12.4416 15.704 13.9616 15.336 15.6576 15.336C17.2576 15.336 18.7136 15.704 20.0256 16.44C21.3376 17.144 22.3776 18.152 23.1456 19.464C23.9136 20.744 24.2976 22.296 24.2976 24.12V39H18.0096ZM33.1296 39V25.32C33.1296 23.976 32.6976 22.936 31.8336 22.2C31.0016 21.432 29.9616 21.048 28.7136 21.048C27.9136 21.048 27.1616 21.224 26.4576 21.576C25.7856 21.896 25.2576 22.376 24.8736 23.016C24.4896 23.656 24.2976 24.424 24.2976 25.32L20.6976 24.456C20.8256 22.6 21.3216 21 22.1856 19.656C23.0496 18.28 24.1856 17.224 25.5936 16.488C27.0016 15.72 28.5696 15.336 30.2976 15.336C32.0256 15.336 33.5776 15.704 34.9536 16.44C36.3296 17.144 37.4176 18.168 38.2176 19.512C39.0176 20.856 39.4176 22.456 39.4176 24.312V39H33.1296ZM77.7948 39.48C75.6508 39.48 73.7308 38.952 72.0348 37.896C70.3388 36.84 68.9948 35.4 68.0028 33.576C67.0428 31.752 66.5628 29.704 66.5628 27.432C66.5628 25.128 67.0428 23.064 68.0028 21.24C68.9948 19.416 70.3228 17.976 71.9868 16.92C73.6828 15.864 75.6188 15.336 77.7948 15.336C79.4588 15.336 80.9468 15.672 82.2588 16.344C83.6028 17.016 84.6748 17.96 85.4748 19.176C86.3068 20.36 86.7548 21.704 86.8188 23.208V31.464C86.7548 32.968 86.3228 34.328 85.5228 35.544C84.7228 36.76 83.6508 37.72 82.3068 38.424C80.9628 39.128 79.4588 39.48 77.7948 39.48ZM78.8508 33.672C80.0348 33.672 81.0588 33.416 81.9228 32.904C82.8188 32.36 83.5068 31.624 83.9868 30.696C84.4988 29.736 84.7548 28.632 84.7548 27.384C84.7548 26.168 84.4988 25.096 83.9868 24.168C83.5068 23.208 82.8188 22.472 81.9228 21.96C81.0588 21.416 80.0508 21.144 78.8988 21.144C77.7148 21.144 76.6748 21.416 75.7788 21.96C74.9148 22.504 74.2268 23.24 73.7148 24.168C73.2348 25.096 72.9948 26.168 72.9948 27.384C72.9948 28.632 73.2348 29.736 73.7148 30.696C74.2268 31.624 74.9308 32.36 75.8268 32.904C76.7228 33.416 77.7308 33.672 78.8508 33.672ZM90.6588 39H84.4188V32.76L85.4268 27.096L84.3708 21.528V4.296H90.6588V39ZM105.389 39.48C102.957 39.48 100.797 38.968 98.9095 37.944C97.0215 36.888 95.5175 35.448 94.3975 33.624C93.3095 31.8 92.7655 29.72 92.7655 27.384C92.7655 25.08 93.2935 23.032 94.3495 21.24C95.4375 19.416 96.9095 17.976 98.7655 16.92C100.621 15.832 102.685 15.288 104.957 15.288C107.197 15.288 109.165 15.8 110.861 16.824C112.589 17.816 113.933 19.192 114.893 20.952C115.885 22.68 116.381 24.648 116.381 26.856C116.381 27.272 116.349 27.704 116.285 28.152C116.253 28.568 116.173 29.048 116.045 29.592L96.5575 29.64V24.936L113.117 24.888L110.573 26.856C110.509 25.48 110.253 24.328 109.805 23.4C109.389 22.472 108.765 21.768 107.933 21.288C107.133 20.776 106.141 20.52 104.957 20.52C103.709 20.52 102.621 20.808 101.693 21.384C100.765 21.928 100.045 22.712 99.5335 23.736C99.0535 24.728 98.8135 25.912 98.8135 27.288C98.8135 28.696 99.0695 29.928 99.5815 30.984C100.125 32.008 100.893 32.808 101.885 33.384C102.877 33.928 104.029 34.2 105.341 34.2C106.525 34.2 107.597 34.008 108.557 33.624C109.517 33.208 110.349 32.6 111.053 31.8L114.749 35.496C113.629 36.808 112.253 37.8 110.621 38.472C109.021 39.144 107.277 39.48 105.389 39.48ZM126.318 39.528C125.006 39.528 123.71 39.352 122.43 39C121.182 38.648 120.03 38.168 118.974 37.56C117.918 36.92 117.006 36.152 116.238 35.256L119.982 31.464C120.782 32.36 121.71 33.032 122.766 33.48C123.822 33.928 124.99 34.152 126.27 34.152C127.294 34.152 128.062 34.008 128.574 33.72C129.118 33.432 129.39 33 129.39 32.424C129.39 31.784 129.102 31.288 128.526 30.936C127.982 30.584 127.262 30.296 126.366 30.072C125.47 29.816 124.526 29.544 123.534 29.256C122.574 28.936 121.646 28.536 120.75 28.056C119.854 27.544 119.118 26.856 118.542 25.992C117.998 25.096 117.726 23.944 117.726 22.536C117.726 21.064 118.078 19.784 118.782 18.696C119.518 17.608 120.558 16.76 121.902 16.152C123.246 15.544 124.83 15.24 126.654 15.24C128.574 15.24 130.302 15.576 131.838 16.248C133.406 16.92 134.702 17.928 135.726 19.272L131.934 23.064C131.23 22.2 130.43 21.576 129.534 21.192C128.67 20.808 127.726 20.616 126.702 20.616C125.774 20.616 125.054 20.76 124.542 21.048C124.062 21.336 123.822 21.736 123.822 22.248C123.822 22.824 124.094 23.272 124.638 23.592C125.214 23.912 125.95 24.2 126.846 24.456C127.742 24.68 128.67 24.952 129.63 25.272C130.622 25.56 131.55 25.976 132.414 26.52C133.31 27.064 134.03 27.784 134.574 28.68C135.15 29.576 135.438 30.728 135.438 32.136C135.438 34.408 134.622 36.216 132.99 37.56C131.358 38.872 129.134 39.528 126.318 39.528Z" fill="#181D27"/>
<defs>
<linearGradient id="paint0_linear_22105_13162" x1="41" y1="39.5" x2="53" y2="27.5" gradientUnits="userSpaceOnUse">
<stop stop-color="#9D4EFF" stop-opacity="0.8"/>
<stop offset="1" stop-color="#DDD6FE"/>
</linearGradient>
<linearGradient id="paint1_linear_22105_13162" x1="65" y1="15.5" x2="53" y2="27.5" gradientUnits="userSpaceOnUse">
<stop stop-color="#FF871F" stop-opacity="0.8"/>
<stop offset="1" stop-color="#FFD6AE"/>
</linearGradient>
<linearGradient id="paint2_linear_22105_13162" x1="65" y1="39.5" x2="53" y2="27.5" gradientUnits="userSpaceOnUse">
<stop stop-color="#39E830" stop-opacity="0.8"/>
<stop offset="1" stop-color="#AAF0C4"/>
</linearGradient>
<linearGradient id="paint3_linear_22105_13162" x1="41" y1="15.5" x2="53" y2="27.5" gradientUnits="userSpaceOnUse">
<stop stop-color="#0082E9" stop-opacity="0.8"/>
<stop offset="1" stop-color="#B2DDFF"/>
</linearGradient>
</defs>
</svg>
